<svg width="293" height="275" viewBox="0 0 293 275" fill="none" xmlns="http://www.w3.org/2000/svg">
<path d="M247.07 205.78C245.77 203.73 244.06 202.1 241.92 200.89C239.78 199.68 237.09 199.07 233.84 199.06C231.05 199.05 228.66 199.61 226.66 200.72C224.66 201.83 222.98 203.34 221.63 205.24C220.28 207.14 219.3 209.33 218.69 211.79C218.08 214.25 217.77 216.83 217.77 219.52C217.76 222.12 218.01 224.7 218.52 227.26C219.02 229.82 219.9 232.12 221.15 234.16C222.4 236.21 224.05 237.88 226.09 239.19C228.13 240.5 230.69 241.15 233.75 241.15C236.54 241.16 239 240.6 241.14 239.49C243.28 238.38 245.05 236.9 246.44 235.04C247.84 233.19 248.89 231.07 249.59 228.71C250.29 226.34 250.65 223.86 250.65 221.25C250.66 218.28 250.38 215.47 249.83 212.82C249.3 210.17 248.37 207.83 247.07 205.78Z" fill="white"/>
<path d="M171.84 225.56C170.4 225.84 168.89 226.07 167.31 226.25C165.73 226.43 164.15 226.66 162.57 226.94C161.08 227.22 159.62 227.59 158.18 228.05C156.74 228.51 155.48 229.14 154.41 229.92C153.34 230.71 152.48 231.71 151.83 232.91C151.18 234.12 150.85 235.65 150.85 237.51C150.85 239.28 151.17 240.76 151.82 241.97C152.47 243.18 153.35 244.13 154.46 244.83C155.58 245.53 156.87 246.02 158.36 246.3C159.84 246.58 161.38 246.72 162.96 246.73C166.86 246.74 169.88 246.09 172.02 244.8C174.16 243.5 175.74 241.95 176.77 240.14C177.8 238.33 178.43 236.5 178.66 234.64C178.89 232.78 179.01 231.3 179.02 230.18L179.03 222.79C178.19 223.53 177.15 224.11 175.89 224.53C174.62 224.94 173.28 225.28 171.84 225.56Z" fill="white"/>
<path d="M0.0100098 176.89V274.1H204.75C204.38 273.63 204 273.17 203.66 272.67C201.67 269.74 200.54 266.23 200.27 262.14L219.92 262.18C220.84 265.9 222.65 268.48 225.34 269.93C228.03 271.38 231.14 272.1 234.68 272.11C240.26 272.12 244.32 270.46 246.88 267.12C249.44 263.78 250.68 259.55 250.6 254.44L250.62 244.96H250.34C248.2 248.77 245.15 251.57 241.19 253.37C237.24 255.17 233.08 256.07 228.71 256.06C223.32 256.05 218.68 255.09 214.78 253.17C210.88 251.26 207.68 248.65 205.18 245.34C202.68 242.04 200.85 238.18 199.7 233.76C199.34 232.37 199.05 230.94 198.8 229.5L198.77 242.06C198.76 245.31 198.94 248.43 199.31 251.4C199.67 254.38 200.32 256.61 201.25 258.09L181.18 258.05C180.81 256.94 180.51 255.8 180.28 254.63C180.05 253.47 179.89 252.28 179.8 251.07C176.63 254.32 172.91 256.59 168.64 257.88C164.36 259.17 159.99 259.81 155.53 259.8C152.09 259.79 148.88 259.37 145.91 258.53C142.93 257.69 140.34 256.38 138.11 254.61C135.88 252.84 134.14 250.61 132.9 247.91C132.72 247.51 132.57 247.08 132.42 246.66L132.4 257.95L112.61 257.91L112.69 217.07C112.7 214.66 112.61 212.38 112.42 210.24C112.24 208.1 111.73 206.24 110.9 204.66C110.07 203.08 108.83 201.82 107.21 200.89C105.59 199.96 103.38 199.49 100.59 199.48C97.8 199.47 95.55 200 93.83 201.07C92.11 202.14 90.76 203.53 89.78 205.24C88.8 206.96 88.14 208.91 87.82 211.09C87.49 213.27 87.32 215.48 87.32 217.71L87.24 257.85L67.45 257.81L67.53 217.39C67.53 215.25 67.49 213.14 67.4 211.05C67.31 208.96 66.92 207.03 66.22 205.27C65.53 203.5 64.37 202.08 62.74 201.01C61.12 199.94 58.72 199.4 55.57 199.39C54.64 199.39 53.41 199.59 51.88 200.01C50.34 200.43 48.85 201.22 47.41 202.37C45.96 203.53 44.73 205.2 43.7 207.38C42.67 209.56 42.15 212.42 42.15 215.95L42.07 257.77L22.28 257.73L22.43 185.67L41.11 185.71L41.09 195.47H41.37C43.98 191.76 47.12 188.88 50.8 186.85C54.48 184.82 58.68 183.8 63.42 183.81C67.97 183.82 72.13 184.71 75.89 186.48C79.65 188.25 82.5 191.37 84.44 195.84C86.58 192.69 89.49 189.9 93.17 187.5C96.85 185.09 101.19 183.89 106.21 183.9C110.02 183.91 113.55 184.38 116.8 185.31C120.05 186.25 122.83 187.74 125.16 189.79C127.48 191.84 129.28 194.52 130.58 197.82C131.87 201.12 132.51 205.1 132.51 209.74L132.47 229.92C132.7 229.33 132.95 228.74 133.24 228.21C134.68 225.56 136.55 223.46 138.83 221.88C141.11 220.31 143.71 219.13 146.64 218.34C149.57 217.56 152.52 216.94 155.5 216.48C158.47 216.02 161.4 215.66 164.28 215.38C167.16 215.11 169.72 214.69 171.95 214.14C174.18 213.59 175.95 212.78 177.25 211.71C178.55 210.64 179.16 209.09 179.07 207.04C179.07 204.9 178.73 203.21 178.04 201.95C177.35 200.69 176.42 199.72 175.26 199.02C174.1 198.32 172.75 197.85 171.22 197.62C169.69 197.39 168.04 197.26 166.27 197.26C162.37 197.25 159.3 198.08 157.07 199.75C154.84 201.42 153.53 204.2 153.15 208.11L133.36 208.07C133.65 203.42 134.82 199.57 136.87 196.51C138.92 193.45 141.53 190.99 144.69 189.14C147.85 187.29 151.41 185.97 155.36 185.19C159.31 184.41 163.28 184.02 167.28 184.03C170.91 184.04 174.58 184.3 178.29 184.82C182 185.34 185.39 186.35 188.46 187.84C191.52 189.33 194.03 191.41 195.97 194.06C197.92 196.71 198.89 200.23 198.88 204.59L198.87 211.18C199.19 209.55 199.56 207.92 200.06 206.33C201.41 202.01 203.4 198.21 206.01 194.91C208.62 191.62 211.85 189 215.71 187.05C219.57 185.11 224.01 184.14 229.03 184.15C233.77 184.16 237.93 185.05 241.5 186.82C245.07 188.59 248.06 191.57 250.47 195.76H250.75L250.77 186.14L269.59 186.18L269.45 253.64C269.44 256.52 269.04 259.82 268.25 263.53C267.45 267.24 265.75 270.7 263.14 273.9C263.09 273.97 263.02 274.03 262.97 274.1H292.33V176.89H0.0100098Z" fill="white"/>
<path d="M115.64 0H81.55V28.01H115.64V0Z" fill="white"/>
<path d="M231.83 40.46C212.49 40.46 196.33 47.92 185.16 60.18L185.29 60C185.29 60 184.79 60.55 184.04 61.44C183.9 61.6 183.74 61.8 183.58 61.99V47.17H160.05V39.75C160.05 29.46 163.89 25.62 173.02 25.62C177.34 25.62 181.42 25.86 185.5 26.34V0.959999C179.74 0.719999 173.5 0 167.49 0C139.64 0 125.96 15.8 125.96 37.59V47.17H115.64H105.55H81.55V139.34H69.33H56.51H37.69V0H0V170.94H56.51H69.33H81.55H87.08H115.64V69.91H125.96V170.94H160.05V69.91H177.94C171.85 80.11 168.45 92.37 168.45 105.82C168.45 144.12 192.7 170.94 231.83 170.94C259.92 170.94 280.32 158.49 289.93 129.28H259.92C257.76 136.94 246.72 145.32 233.03 145.32C214.07 145.32 203.5 135.5 202.54 113.96H292.09C294.49 75.89 274.08 40.46 231.83 40.46ZM202.54 92.41C203.02 82.84 209.26 66.08 230.87 66.08C247.43 66.08 254.88 75.18 258 92.41H202.54Z" fill="white"/>
</svg>
