<svg id="Calque_1" data-name="Calque 1" xmlns="http://www.w3.org/2000/svg" viewBox="0 0 1439 866"><path fill="#fff" d="M463.62,171H607V52.87H463.62Zm742.19,285.77H972.54c2-40.38,28.28-111.07,119.16-111.07,69.67,0,101,38.37,114.11,111.07M1095.74,237.67c-85.25,0-155.86,34.48-203,90.67V251.81h-99V220.5c0-43.42,16.16-59.58,54.54-59.58a445,445,0,0,1,52.51,3v-107c-24.24-1-50.49-4-75.74-4-117.13,0-174.7,66.65-174.7,158.54v40.4H463.62V640.58H279.14V52.87H120.59v721H607V347.74h43.41V773.87H793.81V347.74H878c-31.3,45.57-48.86,102.55-48.86,165.61,0,161.56,102,274.67,266.59,274.67,118.15,0,204-52.51,244.37-175.71H1213.89c-9.09,32.31-55.54,67.66-113.1,67.66-79.77,0-124.21-41.41-128.25-132.29H1349.2c10.11-160.56-75.74-310-253.46-310"/></svg>