<?xml version="1.0" encoding="utf-8"?>
<!-- Generator: Adobe Illustrator 24.2.3, SVG Export Plug-In . SVG Version: 6.00 Build 0)  -->
<svg version="1.1" id="Calque_1" xmlns="http://www.w3.org/2000/svg" xmlns:xlink="http://www.w3.org/1999/xlink" x="0px" y="0px"
	 viewBox="0 0 500 500" style="enable-background:new 0 0 500 500;" xml:space="preserve">
<style type="text/css">
	.st0{fill:#E20613;}
	.st1{fill:#FFFFFF;}
</style>
<g>
	<g>
		<rect x="-1316.92" y="72.16" class="st0" width="44.21" height="36.43"/>
		<path class="st0" d="M-1272.7,163.08h13.38v124.12l44.21-3.81V163.08h25.96c-9.65,14.05-15.07,31.62-15.07,51.06
			c0,27.79,9.8,50.93,27.27,65.96l117.79-10.15c5.06-7.03,9.25-15.42,12.49-25.29h-38.92c-2.8,9.96-17.12,20.86-34.87,20.86
			c-24.6,0-38.3-12.77-39.54-40.79h116.13c3.12-49.51-23.35-95.59-78.15-95.59c-26.28,0-48.05,10.63-62.58,27.96v-23.6h-30.51v-9.65
			c0-13.39,4.98-18.37,16.81-18.37c5.6,0,10.9,0.31,16.19,0.93v-33c-7.47-0.31-15.57-1.24-23.35-1.24
			c-36.12,0-53.87,20.55-53.87,48.88v12.46h-13.38h-13.08h-31.13v119.87h-15.84h-16.63h-24.41V72.16h-48.88v222.31h73.29h5.6
			l71.08-6.12V163.08z M-1123.26,162.46c21.48,0,31.14,11.83,35.18,34.25H-1160C-1159.37,184.25-1151.28,162.46-1123.26,162.46z"/>
	</g>
	<path class="st1" d="M-1062.01,407.33l-0.11,0.01c0.25-0.34,0.52-0.68,0.75-1.03c3.2-4.72,5.12-9.68,5.77-14.88
		c0.64-5.2,0.8-9.79,0.46-13.75l-7.99-92.78l-25.88,2.23l1.14,13.23l-0.38,0.03c-3.82-5.47-8.29-9.2-13.42-11.2
		c-5.13-2-10.95-2.73-17.47-2.16c-6.9,0.59-12.89,2.46-17.96,5.6c-5.07,3.14-9.21,7.14-12.39,11.98
		c-3.19,4.84-5.45,10.32-6.79,16.42c-0.5,2.25-0.82,4.52-1.05,6.81l-0.78-9.06c-0.52-6-2.28-10.72-5.27-14.13
		c-2.99-3.41-6.69-5.95-11.08-7.64c-4.4-1.68-9.18-2.65-14.35-2.91c-5.17-0.26-10.25-0.18-15.24,0.25
		c-5.49,0.47-10.91,1.49-16.25,3.04c-5.34,1.55-10.07,3.8-14.2,6.73c-4.13,2.93-7.41,6.63-9.86,11.08
		c-2.45,4.46-3.59,9.9-3.42,16.33l27.22-2.34c0.05-5.42,1.51-9.4,4.38-11.97c2.87-2.56,6.99-4.08,12.35-4.54
		c2.43-0.21,4.71-0.24,6.85-0.11c2.14,0.14,4.04,0.62,5.72,1.44c1.68,0.82,3.08,2.05,4.18,3.7c1.11,1.64,1.79,3.93,2.04,6.87
		c0.37,2.8-0.28,5.01-1.94,6.64c-1.66,1.62-3.99,2.95-6.99,3.98c-3,1.03-6.47,1.91-10.39,2.63c-3.93,0.73-7.91,1.58-11.94,2.58
		c-4.04,0.99-8.02,2.2-11.95,3.63c-3.93,1.43-7.37,3.37-10.31,5.81c-2.95,2.45-5.25,5.57-6.92,9.38c-0.34,0.77-0.6,1.6-0.85,2.45
		l-2.39-27.76c-0.55-6.39-1.92-11.77-4.09-16.16c-2.19-4.38-4.99-7.84-8.43-10.38c-3.44-2.53-7.45-4.25-12.03-5.14
		c-4.58-0.89-9.5-1.11-14.73-0.66c-6.9,0.6-12.73,2.77-17.5,6.53s-8.43,7.94-10.99,12.53c-3.21-5.9-7.51-9.84-12.89-11.83
		c-5.38-1.98-11.21-2.7-17.47-2.17c-6.52,0.56-12.18,2.47-16.99,5.71c-4.81,3.25-8.78,7.58-11.92,13l-0.38,0.03l-1.16-13.42
		l-25.69,2.21l8.54,99.11l27.22-2.34l-4.96-57.51c-0.42-4.85-0.05-8.84,1.1-11.97c1.15-3.12,2.64-5.57,4.49-7.34
		c1.84-1.77,3.79-3.03,5.85-3.79c2.06-0.76,3.72-1.19,5-1.3c4.34-0.37,7.7,0.07,10.06,1.35c2.36,1.28,4.13,3.09,5.3,5.44
		c1.17,2.34,1.94,4.95,2.32,7.81c0.37,2.87,0.69,5.77,0.94,8.71l4.79,55.59l27.22-2.34l-4.76-55.21c-0.26-3.07-0.31-6.12-0.12-9.17
		c0.19-3.04,0.85-5.8,1.99-8.28c1.14-2.48,2.82-4.55,5.06-6.23c2.24-1.67,5.27-2.67,9.11-3c3.83-0.33,6.92,0.05,9.27,1.13
		c2.34,1.08,4.19,2.67,5.53,4.74c1.34,2.08,2.26,4.57,2.77,7.49c0.51,2.92,0.91,6.04,1.19,9.36l4.84,56.17l27.22-2.34l-1.34-15.52
		c0.27,0.56,0.51,1.14,0.82,1.66c2.04,3.56,4.7,6.42,7.98,8.58c3.27,2.17,7,3.65,11.2,4.44c4.19,0.8,8.65,0.99,13.38,0.58
		c6.13-0.53,12.06-1.94,17.79-4.23c5.72-2.29,10.57-5.86,14.53-10.72c0.27,1.65,0.63,3.26,1.09,4.83c0.46,1.57,1.01,3.1,1.65,4.59
		l27.6-2.38c-1.46-1.93-2.62-4.92-3.48-8.97c-0.87-4.04-1.49-8.3-1.87-12.78l-1.49-17.26c0.52,1.95,1.08,3.88,1.75,5.75
		c2.12,5.93,5.1,11.02,8.94,15.26c3.84,4.24,8.56,7.44,14.16,9.6c5.59,2.16,12.09,2.92,19.51,2.28c6.01-0.52,11.62-2.26,16.83-5.22
		c5.22-2.96,9.07-7.18,11.56-12.68l0.38-0.03l1.12,13.03c0.73,7.02-0.46,12.98-3.58,17.88c-3.12,4.9-8.51,7.69-16.18,8.35
		c-4.86,0.42-9.22-0.2-13.1-1.86c-3.88-1.66-6.68-4.99-8.39-9.99l-27.03,2.33c0.87,5.59,2.85,10.28,5.94,14.07
		c0.67,0.82,1.38,1.58,2.11,2.33l-0.13,0.01c0,0,0.01,0.01,0.01,0.01l79.24-6.83C-1062.02,407.34-1062.01,407.33-1062.01,407.33z
		 M-1182.25,362.55c-0.1,2.59-0.75,5.18-1.94,7.8c-1.19,2.61-3.18,4.94-5.97,6.98c-2.78,2.04-6.86,3.29-12.23,3.76
		c-2.17,0.19-4.3,0.18-6.37-0.03c-2.08-0.21-3.92-0.72-5.54-1.55c-1.62-0.83-2.94-2.03-3.98-3.62c-1.04-1.58-1.66-3.59-1.87-6.02
		c-0.22-2.55,0.04-4.7,0.8-6.44c0.75-1.74,1.82-3.21,3.19-4.43c1.37-1.21,3.03-2.22,4.95-3.03c1.92-0.81,3.89-1.49,5.9-2.05
		c2.14-0.57,4.28-1.07,6.44-1.52c2.15-0.44,4.2-0.94,6.15-1.5c1.95-0.55,3.76-1.19,5.43-1.92c1.68-0.72,3.05-1.64,4.11-2.77
		l0.88,10.16C-1182.18,357.91-1182.16,359.97-1182.25,362.55z M-1085.4,345.81c-0.68,3.34-1.86,6.37-3.56,9.09
		c-1.69,2.72-3.95,4.98-6.75,6.76c-2.81,1.79-6.13,2.84-9.96,3.17c-4.22,0.36-7.81-0.22-10.78-1.77c-2.96-1.55-5.43-3.65-7.4-6.32
		c-1.96-2.66-3.45-5.72-4.46-9.17c-1.01-3.46-1.66-6.97-1.97-10.55c-0.32-3.71-0.21-7.28,0.33-10.74c0.54-3.46,1.62-6.58,3.25-9.36
		c1.62-2.78,3.75-5.05,6.37-6.83c2.62-1.77,5.84-2.82,9.68-3.15c4.47-0.38,8.25,0.13,11.33,1.53c3.08,1.41,5.64,3.44,7.67,6.1
		c2.03,2.66,3.59,5.77,4.67,9.35c1.08,3.58,1.8,7.41,2.15,11.5C-1084.54,339.01-1084.72,342.47-1085.4,345.81z"/>
	<g>
		<path class="st0" d="M-1033.18,274.05c-0.18-2.03-1.97-3.54-4-3.37l-393.2,33.88c-2.03,0.18-3.54,1.97-3.37,4l10.87,126.15
			c0.03,0.29,0.09,0.57,0.18,0.84c0.52,1.59,2.08,2.68,3.82,2.53l29.33-2.53l248.4-21.4c-0.73-0.74-1.44-1.51-2.11-2.33
			c-3.1-3.79-5.08-8.48-5.94-14.07l27.03-2.33c1.72,5,4.52,8.33,8.39,9.99c3.88,1.66,8.24,2.28,13.1,1.86
			c7.67-0.66,13.06-3.44,16.18-8.35c3.12-4.9,4.31-10.87,3.58-17.88l-1.12-13.03l-0.38,0.03c-2.49,5.49-6.34,9.72-11.56,12.68
			c-5.22,2.96-10.83,4.7-16.83,5.22c-7.41,0.64-13.92-0.12-19.51-2.28c-5.6-2.15-10.31-5.36-14.16-9.6
			c-3.84-4.24-6.82-9.32-8.94-15.26c-0.67-1.87-1.23-3.79-1.75-5.75l1.49,17.26c0.39,4.48,1.01,8.74,1.87,12.78
			c0.86,4.05,2.02,7.04,3.48,8.97l-27.6,2.38c-0.65-1.49-1.2-3.02-1.65-4.59c-0.46-1.57-0.82-3.18-1.09-4.83
			c-3.96,4.85-8.81,8.42-14.53,10.72c-5.73,2.29-11.65,3.71-17.79,4.23c-4.73,0.41-9.19,0.21-13.38-0.58
			c-4.19-0.8-7.92-2.28-11.2-4.44c-3.28-2.16-5.94-5.02-7.98-8.58c-0.3-0.52-0.55-1.1-0.82-1.66l1.34,15.52l-27.22,2.34l-4.84-56.17
			c-0.29-3.32-0.68-6.44-1.19-9.36c-0.51-2.92-1.43-5.41-2.77-7.49c-1.34-2.07-3.18-3.65-5.53-4.74c-2.35-1.08-5.44-1.46-9.27-1.13
			c-3.84,0.33-6.87,1.33-9.11,3c-2.24,1.68-3.92,3.75-5.06,6.23c-1.14,2.48-1.8,5.24-1.99,8.28c-0.19,3.04-0.15,6.1,0.12,9.17
			l4.76,55.21l-27.22,2.34l-4.79-55.59c-0.25-2.94-0.57-5.84-0.94-8.71c-0.38-2.86-1.15-5.47-2.32-7.81
			c-1.17-2.35-2.93-4.16-5.3-5.44c-2.36-1.28-5.72-1.72-10.06-1.35c-1.28,0.11-2.95,0.54-5,1.3c-2.06,0.76-4.01,2.03-5.85,3.79
			c-1.85,1.77-3.34,4.22-4.49,7.34c-1.15,3.13-1.51,7.12-1.1,11.97l4.96,57.51l-27.22,2.34l-8.54-99.11l25.69-2.21l1.16,13.42
			l0.38-0.03c3.14-5.42,7.11-9.75,11.92-13c4.81-3.24,10.47-5.15,16.99-5.71c6.26-0.54,12.09,0.19,17.47,2.17
			c5.39,1.98,9.69,5.92,12.89,11.83c2.57-4.59,6.23-8.77,10.99-12.53s10.59-5.93,17.5-6.53c5.24-0.45,10.15-0.23,14.73,0.66
			c4.58,0.9,8.59,2.61,12.03,5.14c3.44,2.54,6.24,6,8.43,10.38c2.18,4.38,3.54,9.77,4.09,16.16l2.39,27.76
			c0.25-0.84,0.51-1.68,0.85-2.45c1.67-3.82,3.97-6.94,6.92-9.38c2.94-2.44,6.38-4.38,10.31-5.81c3.93-1.43,7.91-2.64,11.95-3.63
			c4.03-0.99,8.01-1.85,11.94-2.58c3.93-0.72,7.39-1.6,10.39-2.63c3-1.03,5.33-2.36,6.99-3.98c1.66-1.62,2.31-3.84,1.94-6.64
			c-0.25-2.94-0.93-5.23-2.04-6.87c-1.11-1.65-2.5-2.88-4.18-3.7c-1.68-0.82-3.59-1.3-5.72-1.44c-2.14-0.14-4.42-0.1-6.85,0.11
			c-5.37,0.46-9.48,1.98-12.35,4.54c-2.87,2.57-4.33,6.55-4.38,11.97l-27.22,2.34c-0.17-6.42,0.97-11.86,3.42-16.33
			c2.45-4.46,5.73-8.15,9.86-11.08c4.12-2.93,8.86-5.17,14.2-6.73c5.34-1.55,10.75-2.57,16.25-3.04c4.99-0.43,10.07-0.51,15.24-0.25
			c5.17,0.26,9.95,1.24,14.35,2.91c4.39,1.68,8.09,4.23,11.08,7.64c3,3.41,4.76,8.12,5.27,14.13l0.78,9.06
			c0.24-2.29,0.56-4.56,1.05-6.81c1.34-6.1,3.6-11.58,6.79-16.42c3.18-4.84,7.32-8.84,12.39-11.98c5.07-3.14,11.06-5.01,17.96-5.6
			c6.52-0.56,12.34,0.16,17.47,2.16c5.13,2.01,9.6,5.74,13.42,11.2l0.38-0.03l-1.14-13.23l25.88-2.23l7.99,92.78
			c0.34,3.96,0.19,8.54-0.46,13.75c-0.65,5.2-2.57,10.17-5.77,14.88c-0.24,0.35-0.5,0.69-0.75,1.03l36.43-3.14
			c2.04-0.18,3.54-1.97,3.37-4L-1033.18,274.05z"/>
		<path class="st0" d="M-1091.66,314.58c-2.03-2.66-4.59-4.69-7.67-6.1c-3.08-1.41-6.86-1.92-11.33-1.53
			c-3.84,0.33-7.06,1.38-9.68,3.15c-2.62,1.77-4.74,4.05-6.37,6.83c-1.62,2.78-2.71,5.9-3.25,9.36c-0.54,3.46-0.65,7.04-0.33,10.74
			c0.31,3.58,0.96,7.09,1.97,10.55c1,3.46,2.49,6.51,4.46,9.17c1.97,2.67,4.44,4.77,7.4,6.32c2.97,1.55,6.56,2.14,10.78,1.77
			c3.83-0.33,7.15-1.39,9.96-3.17c2.81-1.78,5.06-4.04,6.75-6.76c1.7-2.72,2.89-5.75,3.56-9.09c0.68-3.34,0.86-6.8,0.55-10.38
			c-0.35-4.09-1.07-7.92-2.15-11.5C-1088.08,320.36-1089.63,317.24-1091.66,314.58z"/>
		<path class="st0" d="M-1187.29,348.99c-1.67,0.72-3.48,1.36-5.43,1.92c-1.95,0.56-4,1.05-6.15,1.5c-2.15,0.44-4.3,0.95-6.44,1.52
			c-2.01,0.56-3.98,1.25-5.9,2.05c-1.93,0.81-3.58,1.82-4.95,3.03c-1.38,1.22-2.44,2.69-3.19,4.43c-0.75,1.74-1.02,3.89-0.8,6.44
			c0.21,2.43,0.83,4.44,1.87,6.02c1.04,1.59,2.36,2.79,3.98,3.62c1.62,0.83,3.46,1.34,5.54,1.55c2.07,0.21,4.2,0.22,6.37,0.03
			c5.37-0.46,9.44-1.71,12.23-3.76c2.79-2.04,4.78-4.37,5.97-6.98c1.19-2.61,1.84-5.21,1.94-7.8c0.1-2.58,0.08-4.64-0.05-6.17
			l-0.88-10.16C-1184.24,347.34-1185.61,348.26-1187.29,348.99z"/>
	</g>
</g>
<g>
	<g>
		<g>
			<path class="st1" d="M348.3,321.6c-1.3-2.05-3.01-3.68-5.15-4.89c-2.14-1.21-4.83-1.82-8.08-1.83c-2.79-0.01-5.18,0.55-7.18,1.66
				c-2,1.11-3.68,2.62-5.03,4.52c-1.35,1.9-2.33,4.09-2.94,6.55c-0.61,2.46-0.92,5.04-0.92,7.73c-0.01,2.6,0.24,5.18,0.75,7.74
				c0.5,2.56,1.38,4.86,2.63,6.9c1.25,2.05,2.9,3.72,4.94,5.03c2.04,1.31,4.6,1.96,7.66,1.96c2.79,0.01,5.25-0.55,7.39-1.66
				c2.14-1.11,3.91-2.59,5.3-4.45c1.4-1.85,2.45-3.97,3.15-6.33c0.7-2.37,1.06-4.85,1.06-7.46c0.01-2.97-0.27-5.78-0.82-8.43
				C350.53,325.99,349.6,323.65,348.3,321.6z"/>
			<path class="st1" d="M273.07,341.38c-1.44,0.28-2.95,0.51-4.53,0.69c-1.58,0.18-3.16,0.41-4.74,0.69
				c-1.49,0.28-2.95,0.65-4.39,1.11c-1.44,0.46-2.7,1.09-3.77,1.87c-1.07,0.79-1.93,1.79-2.58,2.99c-0.65,1.21-0.98,2.74-0.98,4.6
				c0,1.77,0.32,3.25,0.97,4.46c0.65,1.21,1.53,2.16,2.64,2.86c1.12,0.7,2.41,1.19,3.9,1.47c1.48,0.28,3.02,0.42,4.6,0.43
				c3.9,0.01,6.92-0.64,9.06-1.93c2.14-1.3,3.72-2.85,4.75-4.66c1.03-1.81,1.66-3.64,1.89-5.5c0.23-1.86,0.35-3.34,0.36-4.46
				l0.01-7.39c-0.84,0.74-1.88,1.32-3.14,1.74C275.85,340.76,274.51,341.1,273.07,341.38z"/>
			<path class="st1" d="M101.24,292.71v97.21h204.74c-0.37-0.47-0.75-0.93-1.09-1.43c-1.99-2.93-3.12-6.44-3.39-10.53l19.65,0.04
				c0.92,3.72,2.73,6.3,5.42,7.75c2.69,1.45,5.8,2.17,9.34,2.18c5.58,0.01,9.64-1.65,12.2-4.99c2.56-3.34,3.8-7.57,3.72-12.68
				l0.02-9.48h-0.28c-2.14,3.81-5.19,6.61-9.15,8.41c-3.95,1.8-8.11,2.7-12.48,2.69c-5.39-0.01-10.03-0.97-13.93-2.89
				c-3.9-1.91-7.1-4.52-9.6-7.83c-2.5-3.3-4.33-7.16-5.48-11.58c-0.36-1.39-0.65-2.82-0.9-4.26L300,357.88
				c-0.01,3.25,0.17,6.37,0.54,9.34c0.36,2.98,1.01,5.21,1.94,6.69l-20.07-0.04c-0.37-1.11-0.67-2.25-0.9-3.42
				c-0.23-1.16-0.39-2.35-0.48-3.56c-3.17,3.25-6.89,5.52-11.16,6.81c-4.28,1.29-8.65,1.93-13.11,1.92
				c-3.44-0.01-6.65-0.43-9.62-1.27c-2.98-0.84-5.57-2.15-7.8-3.92c-2.23-1.77-3.97-4-5.21-6.7c-0.18-0.4-0.33-0.83-0.48-1.25
				l-0.02,11.29l-19.79-0.04l0.08-40.84c0.01-2.41-0.08-4.69-0.27-6.83c-0.18-2.14-0.69-4-1.52-5.58c-0.83-1.58-2.07-2.84-3.69-3.77
				c-1.62-0.93-3.83-1.4-6.62-1.41c-2.79-0.01-5.04,0.52-6.76,1.59c-1.72,1.07-3.07,2.46-4.05,4.17c-0.98,1.72-1.64,3.67-1.96,5.85
				c-0.33,2.18-0.5,4.39-0.5,6.62l-0.08,40.14l-19.79-0.04l0.08-40.42c0-2.14-0.04-4.25-0.13-6.34c-0.09-2.09-0.48-4.02-1.18-5.78
				c-0.69-1.77-1.85-3.19-3.48-4.26c-1.62-1.07-4.02-1.61-7.17-1.62c-0.93,0-2.16,0.2-3.69,0.62c-1.54,0.42-3.03,1.21-4.47,2.36
				c-1.45,1.16-2.68,2.83-3.71,5.01c-1.03,2.18-1.55,5.04-1.55,8.57l-0.08,41.82l-19.79-0.04l0.15-72.06l18.68,0.04l-0.02,9.76
				l0.28,0c2.61-3.71,5.75-6.59,9.43-8.62c3.68-2.03,7.88-3.05,12.62-3.04c4.55,0.01,8.71,0.9,12.47,2.67
				c3.76,1.77,6.61,4.89,8.55,9.36c2.14-3.15,5.05-5.94,8.73-8.34c3.68-2.41,8.02-3.61,13.04-3.6c3.81,0.01,7.34,0.48,10.59,1.41
				c3.25,0.94,6.03,2.43,8.36,4.48c2.32,2.05,4.12,4.73,5.42,8.03c1.29,3.3,1.93,7.28,1.93,11.92l-0.04,20.18
				c0.23-0.59,0.48-1.18,0.77-1.71c1.44-2.65,3.31-4.75,5.59-6.33c2.28-1.57,4.88-2.75,7.81-3.54c2.93-0.78,5.88-1.4,8.86-1.86
				c2.97-0.46,5.9-0.82,8.78-1.1c2.88-0.27,5.44-0.69,7.67-1.24c2.23-0.55,4-1.36,5.3-2.43c1.3-1.07,1.91-2.62,1.82-4.67
				c0-2.14-0.34-3.83-1.03-5.09c-0.69-1.26-1.62-2.23-2.78-2.93c-1.16-0.7-2.51-1.17-4.04-1.4c-1.53-0.23-3.18-0.36-4.95-0.36
				c-3.9-0.01-6.97,0.82-9.2,2.49c-2.23,1.67-3.54,4.45-3.92,8.36l-19.79-0.04c0.29-4.65,1.46-8.5,3.51-11.56
				c2.05-3.06,4.66-5.52,7.82-7.37c3.16-1.85,6.72-3.17,10.67-3.95c3.95-0.78,7.92-1.17,11.92-1.16c3.63,0.01,7.3,0.27,11.01,0.79
				c3.71,0.52,7.1,1.53,10.17,3.02c3.06,1.49,5.57,3.57,7.51,6.22c1.95,2.65,2.92,6.17,2.91,10.53l-0.01,6.59
				c0.32-1.63,0.69-3.26,1.19-4.85c1.35-4.32,3.34-8.12,5.95-11.42c2.61-3.29,5.84-5.91,9.7-7.86c3.86-1.94,8.3-2.91,13.32-2.9
				c4.74,0.01,8.9,0.9,12.47,2.67c3.57,1.77,6.56,4.75,8.97,8.94l0.28,0l0.02-9.62l18.82,0.04l-0.14,67.46
				c-0.01,2.88-0.41,6.18-1.2,9.89c-0.8,3.71-2.5,7.17-5.11,10.37c-0.05,0.07-0.12,0.13-0.17,0.2h29.36v-97.21H101.24z"/>
		</g>
	</g>
	<g>
		<rect x="182.78" y="115.82" class="st1" width="34.09" height="28.01"/>
		<path class="st1" d="M333.06,156.28c-19.34,0-35.5,7.46-46.67,19.72l0.13-0.18c0,0-0.5,0.55-1.25,1.44
			c-0.14,0.16-0.3,0.36-0.46,0.55v-14.82h-23.53v-7.42c0-10.29,3.84-14.13,12.97-14.13c4.32,0,8.4,0.24,12.48,0.72v-25.38
			c-5.76-0.24-12-0.96-18.01-0.96c-27.85,0-41.53,15.8-41.53,37.59v9.58h-10.32h-10.09h-24v92.17h-12.22h-12.82h-18.82V115.82
			h-37.69v170.94h56.51h12.82h12.22h5.53h28.56V185.73h10.32v101.03h34.09V185.73h17.89c-6.09,10.2-9.49,22.46-9.49,35.91
			c0,38.3,24.25,65.12,63.38,65.12c28.09,0,48.49-12.45,58.1-41.66h-30.01c-2.16,7.66-13.2,16.04-26.89,16.04
			c-18.96,0-29.53-9.82-30.49-31.36h89.55C395.72,191.71,375.31,156.28,333.06,156.28z M303.77,208.23
			c0.48-9.57,6.72-26.33,28.33-26.33c16.56,0,24.01,9.1,27.13,26.33H303.77z"/>
	</g>
</g>
</svg>
